<?xml version="1.0" standalone="no"?>
<!DOCTYPE svg PUBLIC "-//W3C//DTD SVG 20010904//EN"
 "http://www.w3.org/TR/2001/REC-SVG-20010904/DTD/svg10.dtd">
<svg version="1.0" xmlns="http://www.w3.org/2000/svg"
 width="500.000000pt" height="500.000000pt" viewBox="0 0 500.000000 500.000000"
 preserveAspectRatio="xMidYMid meet">

<g transform="translate(0.000000,500.000000) scale(0.100000,-0.100000)"
fill="#000000" stroke="none">
<path d="M1228 2863 c12 -2 32 -2 45 0 12 2 2 4 -23 4 -25 0 -35 -2 -22 -4z"/>
<path d="M1450 2591 l0 -281 50 0 50 0 -2 278 -3 277 -47 3 -48 3 0 -280z m90
-1 l0 -270 -40 0 -40 0 0 270 0 270 40 0 40 0 0 -270z"/>
<path d="M1620 2590 l0 -280 45 0 45 0 1 158 1 157 19 -55 c12 -37 16 -43 12
-20 -3 19 -13 60 -23 90 l-18 55 -1 -187 -1 -188 -35 0 -35 0 0 271 0 270 52
-3 51 -3 43 -155 43 -155 0 158 1 157 35 0 35 0 0 -271 0 -270 -42 3 -42 3
-25 93 c-13 51 -26 90 -28 88 -4 -4 5 -44 33 -143 l15 -53 50 0 49 0 0 280 0
280 -45 0 -44 0 -3 -122 -3 -123 -24 90 c-47 175 -34 155 -101 155 l-60 0 0
-280z"/>
<path d="M1977 2864 c-4 -4 -7 -130 -7 -281 l0 -273 126 0 125 0 -3 48 -3 47
-75 1 -75 1 73 -4 72 -4 0 -39 0 -40 -115 0 -115 0 0 270 0 270 115 0 115 0 0
-40 0 -39 -72 -4 -73 -3 78 -2 78 -2 -3 48 -3 47 -116 3 c-63 1 -118 -1 -122
-4z"/>
<path d="M2257 2863 c-4 -3 -7 -26 -7 -50 l0 -43 45 0 45 0 0 -230 0 -230 55
0 55 0 0 230 0 230 40 0 40 0 0 50 0 50 -133 0 c-74 0 -137 -3 -140 -7z m263
-43 l0 -40 -40 0 -40 0 0 -230 0 -230 -45 0 -45 0 0 230 0 230 -45 0 c-44 0
-45 0 -45 33 0 19 3 37 7 40 3 4 62 7 130 7 l123 0 0 -40z"/>
<path d="M2580 2590 l0 -280 50 0 50 0 0 280 0 280 -50 0 -50 0 0 -280z m90 0
l0 -270 -40 0 -40 0 0 270 0 270 40 0 40 0 0 -270z"/>
<path d="M2858 2863 c12 -2 32 -2 45 0 12 2 2 4 -23 4 -25 0 -35 -2 -22 -4z"/>
<path d="M3151 2861 c-8 -5 5 -7 35 -4 27 3 51 7 53 9 9 8 -75 3 -88 -5z"/>
<path d="M3491 2866 c2 -2 26 -6 53 -9 30 -3 43 -1 35 4 -13 8 -97 13 -88 5z"/>
<path d="M1156 2833 c-14 -14 -29 -36 -32 -48 -3 -12 -4 -110 -2 -219 l3 -198
33 -29 c18 -16 42 -29 55 -28 17 1 14 3 -11 10 -20 6 -40 22 -52 42 -18 29
-20 51 -20 231 l0 198 34 34 c19 19 31 34 26 34 -4 0 -19 -12 -34 -27z"/>
<path d="M1319 2847 c13 -6 33 -30 43 -52 17 -34 19 -36 13 -10 -6 31 -47 76
-68 74 -7 0 -1 -6 12 -12z"/>
<path d="M2797 2849 c-20 -12 -47 -61 -47 -86 1 -13 29 48 30 64 0 1 12 9 28
17 15 8 23 15 17 15 -5 0 -18 -4 -28 -10z"/>
<path d="M2966 2826 c31 -31 34 -39 34 -96 l0 -62 -40 4 c-22 2 -40 0 -40 -4
0 -5 20 -8 45 -8 l45 0 0 61 c0 65 -10 94 -44 121 -36 29 -36 20 0 -16z"/>
<path d="M3430 2832 c-27 -28 -52 -114 -36 -129 3 -4 6 5 6 18 0 53 21 100 53
119 18 11 26 20 19 20 -8 0 -26 -13 -42 -28z"/>
<path d="M3100 2825 c-13 -14 -22 -27 -19 -29 2 -2 14 10 27 25 29 36 24 38
-8 4z"/>
<path d="M3296 2830 c6 -8 16 -24 22 -35 6 -11 12 -15 12 -8 0 7 -10 22 -22
35 -13 13 -18 17 -12 8z"/>
<path d="M3619 2824 c12 -17 25 -50 28 -72 l6 -42 -42 0 c-36 0 -41 3 -41 23
0 35 -15 49 -46 45 -26 -3 -29 -7 -32 -45 -3 -41 0 -46 66 -116 38 -40 73 -83
77 -96 4 -12 9 -20 12 -18 9 10 -21 53 -83 120 -57 60 -64 72 -64 108 0 38 2
40 28 37 22 -2 28 -8 30 -35 3 -32 4 -33 53 -33 48 0 49 1 49 30 0 39 -21 91
-45 110 -14 11 -13 7 4 -16z"/>
<path d="M1222 2768 c-15 -15 -17 -330 -2 -359 6 -10 19 -19 30 -19 33 0 50
28 50 81 l0 49 41 0 42 0 -6 -66 c-6 -77 -27 -113 -78 -131 -25 -9 -28 -12
-12 -12 32 -1 81 45 93 87 5 20 10 58 10 85 l0 47 -50 0 -49 0 -3 -56 c-3 -64
-23 -88 -52 -65 -14 12 -16 38 -14 185 l3 171 24 3 c30 5 41 -12 41 -66 l0
-43 48 3 47 3 1 45 2 45 -7 -40 c-6 -38 -8 -40 -43 -43 -38 -3 -38 -3 -38 33
0 20 -5 45 -10 56 -12 21 -50 25 -68 7z"/>
<path d="M2845 2768 c-3 -8 -4 -92 -3 -187 3 -153 5 -175 21 -185 21 -14 51 2
54 30 2 14 0 13 -7 -4 -7 -17 -17 -22 -32 -20 -23 3 -23 4 -23 183 l0 180 27
3 c17 2 28 -2 31 -13 4 -12 5 -11 3 2 -2 22 -63 32 -71 11z"/>
<path d="M3072 2589 c-2 -189 -1 -197 21 -229 12 -19 29 -36 37 -38 8 -3 3 7
-12 21 -16 14 -29 27 -30 29 -1 2 -5 95 -8 208 l-6 205 -2 -196z"/>
<path d="M3172 2768 c-15 -15 -17 -330 -2 -359 13 -23 43 -25 64 -3 13 13 16
43 16 175 0 92 -4 169 -10 180 -12 21 -50 25 -68 7z m63 -20 c3 -13 4 -92 3
-177 -3 -131 -6 -155 -20 -164 -12 -8 -21 -7 -32 2 -13 11 -16 40 -16 181 0
91 3 170 7 173 16 16 53 6 58 -15z"/>
<path d="M3330 2578 c-5 -191 -6 -197 -29 -222 -14 -15 -39 -31 -55 -36 l-31
-10 34 5 c80 12 93 54 89 285 l-3 175 -5 -197z"/>
<path d="M2744 2585 c0 -88 2 -123 3 -77 2 46 2 118 0 160 -1 42 -3 5 -3 -83z"/>
<path d="M3400 2680 c0 -25 38 -78 94 -134 34 -32 56 -64 61 -85 4 -18 9 -30
12 -27 14 13 -23 78 -73 126 -31 30 -65 73 -75 95 -10 22 -19 33 -19 25z"/>
<path d="M2123 2633 l57 -4 0 -39 0 -39 -57 -4 -58 -3 63 -2 62 -2 0 50 0 50
-62 -2 -63 -2 58 -3z"/>
<path d="M2958 2523 l42 -4 0 -62 c0 -77 -24 -122 -72 -136 -25 -7 -28 -9 -11
-10 13 -1 37 12 55 28 31 28 33 33 36 110 l4 81 -48 -2 -49 -1 43 -4z"/>
<path d="M3392 2448 l1 -43 4 38 c4 36 5 37 44 37 38 0 39 -1 39 -34 0 -18 7
-39 15 -46 17 -14 65 -6 65 11 0 8 -5 8 -15 -1 -8 -6 -23 -9 -35 -5 -16 5 -20
15 -20 46 l0 39 -50 0 -50 0 2 -42z"/>
<path d="M3651 2453 c-1 -53 -14 -86 -42 -112 -13 -12 -18 -21 -12 -21 34 0
69 87 60 146 -3 23 -4 20 -6 -13z"/>
<path d="M2751 2402 c-1 -32 59 -92 91 -91 20 1 18 2 -8 10 -37 10 -62 36 -74
75 -7 26 -8 27 -9 6z"/>
<path d="M3401 2388 c-1 -28 41 -68 79 -73 33 -5 33 -5 6 4 -34 12 -65 39 -77
66 -6 16 -8 17 -8 3z"/>
<path d="M3158 2313 c7 -3 16 -2 19 1 4 3 -2 6 -13 5 -11 0 -14 -3 -6 -6z"/>
<path d="M3558 2313 c7 -3 16 -2 19 1 4 3 -2 6 -13 5 -11 0 -14 -3 -6 -6z"/>
</g>
</svg>
